<svg id="Layer_1" data-name="Layer 1" xmlns="http://www.w3.org/2000/svg" viewBox="0 0 954.83 214.12"><defs><style>.cls-1{fill:#fff;}</style></defs><title>logo-white</title><rect class="cls-1" x="566.86" y="54.89" width="25.9" height="117.89" rx="3.8"/><rect class="cls-1" x="566.2" y="18.37" width="26.97" height="23.86" rx="3.68"/><path class="cls-1" d="M1184.23,948.14h-57a4.23,4.23,0,0,0-4.23,4.23v109.49a4.24,4.24,0,0,0,4.23,4.24h17.45a4.24,4.24,0,0,0,4.23-4.24V999.73c0-17.55,10.49-28,25.48-28,15.41,0,24.19,10.06,24.19,27.62v62.55a4.23,4.23,0,0,0,4.23,4.24h17.44a4.24,4.24,0,0,0,4.23-4.24V991.6C1224.48,965.27,1209.71,948.14,1184.23,948.14Z" transform="translate(-522.58 -893.32)"/><path class="cls-1" d="M1419.65,948.24h-56.08a6.69,6.69,0,0,0-6.68,6.69v52.84l.15,3.08c1.6,30.69,26.44,55.36,59.79,55.36,34.89,0,60.59-26.77,60.59-58.87v-.43C1477.42,975.31,1453.14,949.39,1419.65,948.24Zm31.86,59.53c0,19.48-13.28,36-34.25,36-20.13,0-34.47-16.7-34.47-36.39v-.43c0-19.69,13.28-36,34-36,20.35,0,34.68,16.49,34.68,36.4Z" transform="translate(-522.58 -893.32)"/><path class="cls-1" d="M877.7,911H861.15a4.7,4.7,0,0,0-4.68,4.7V955.1a1.31,1.31,0,0,1-2,1.12,57.28,57.28,0,0,0-29.53-8.08h-.41c-31.45,0-57.64,25.16-57.64,59.32,0,32.66,24,57.14,54,58.7H877.7a4.69,4.69,0,0,0,4.68-4.69V915.71A4.7,4.7,0,0,0,877.7,911Zm-52.76,129.78h-.41c-19.29,0-35.64-14-35.64-33.75,0-20.53,16.14-33.53,35.21-33.53h.43c19.5,0,35.63,14,35.63,34C860.16,1027.79,844.23,1040.79,824.94,1040.79Z" transform="translate(-522.58 -893.32)"/><path class="cls-1" d="M766.16,948.13H709.58a4.68,4.68,0,0,0-4.68,4.68v108.61a4.67,4.67,0,0,0,4.68,4.68h16.54a4.68,4.68,0,0,0,4.69-4.68V999.73c0-17.3,10.17-27.74,24.82-28h10.53a4.68,4.68,0,0,0,4.68-4.68V952.81A4.69,4.69,0,0,0,766.16,948.13Z" transform="translate(-522.58 -893.32)"/><path class="cls-1" d="M1077.1,948.13h-56.58a4.68,4.68,0,0,0-4.68,4.68v108.61a4.67,4.67,0,0,0,4.68,4.68h16.54a4.67,4.67,0,0,0,4.68-4.68V999.73c0-17.3,10.18-27.74,24.83-28h10.53a4.68,4.68,0,0,0,4.68-4.68V952.81A4.69,4.69,0,0,0,1077.1,948.13Z" transform="translate(-522.58 -893.32)"/><path class="cls-1" d="M1342.45,948.12l-56.31-.09c-30.06,1.55-54.07,26.06-54.07,58.72,0,34.18,26.21,59.34,57.67,59.34h.42a57,57,0,0,0,29-7.88,2,2,0,0,1,2.88,2.08c-3.21,16.9-15.5,25.78-35.55,25.78a74.12,74.12,0,0,1-38.13-10.48,3.1,3.1,0,0,0-4.36,1.27l-7,14.21a3.14,3.14,0,0,0,1.24,4.11c14.29,8,31,12.26,48.94,12.26,20.72,0,36.86-5,47.34-15.48a45.41,45.41,0,0,0,10.32-16.61h.1c.1-.33.19-.67.29-1s.26-.85.4-1.27c.47-1.45.94-2.94,1.3-4.5l.11-.52a82.81,82.81,0,0,0,2.06-19V954.82A6.7,6.7,0,0,0,1342.45,948.12Zm-52.71,92.6h-.41c-19.1,0-35.24-13-35.24-33.55,0-19.71,16.36-33.77,35.65-33.77h.42c19.29,0,35.23,13,35.23,33.35C1325.39,1026.68,1309.24,1040.72,1289.74,1040.72Z" transform="translate(-522.58 -893.32)"/><path class="cls-1" d="M1005.6,1005.76H988.3a2.59,2.59,0,0,0-2.54,2.53c-.18,4.21-.45,8.43-2.27,12.23q-11.29,23.6-34.2,23.63a36.33,36.33,0,0,1-20.4-6.11,2.61,2.61,0,0,1,0-4.37c12.42-8.08,58.27-37.88,71.48-46.45a4.87,4.87,0,0,0,1.73-6.22,60.72,60.72,0,0,0-20.33-22.84A57.69,57.69,0,0,0,949,948.23a56.49,56.49,0,0,0-41.73,17.4A59.91,59.91,0,0,0,890,1008.1q.21,24.24,17.3,41,17.29,17,41.95,17,25,0,41.85-17.61a59.64,59.64,0,0,0,17-40.05A2.59,2.59,0,0,0,1005.6,1005.76Zm-92.79,7.55a30.67,30.67,0,0,1-.61-5.83,35.89,35.89,0,0,1,9.68-25.08,36.73,36.73,0,0,1,47.43-5.92,2.63,2.63,0,0,1,.07,4.4L916.79,1015A2.62,2.62,0,0,1,912.81,1013.31Z" transform="translate(-522.58 -893.32)"/><path class="cls-1" d="M678.44,924.85a82.63,82.63,0,0,0-13.72-13.49c-14.53-11.29-33.21-18-54.58-18-51.3,0-87.56,39.37-87.56,86.42v.47a86.45,86.45,0,0,0,18.84,54.45,84.15,84.15,0,0,0,13.73,13.47c14.51,11.24,33.14,18,54.46,18H692a5.22,5.22,0,0,0,5.21-5.23V979.27A86.41,86.41,0,0,0,678.44,924.85ZM548,1030.11l-.93.92a81.16,81.16,0,0,1,114.21-114.2l-.93.92-10,10-1.08,1.09A64.27,64.27,0,0,0,559.06,1019l-1.09,1.08Zm118.36-50.37a56.42,56.42,0,0,1-88.87,46.11,57.21,57.21,0,0,1-13.61-13.59,56.4,56.4,0,1,1,102.48-32.52Zm1,57.38a81.1,81.1,0,0,1-108.72,5.49l.92-.93,10-10,1.07-1.09a64.25,64.25,0,0,0,90.16-90.13l1.08-1.09,10-10,.92-1a81.14,81.14,0,0,1-5.48,108.74Z" transform="translate(-522.58 -893.32)"/></svg>