<svg id="Layer_1" data-name="Layer 1" xmlns="http://www.w3.org/2000/svg" viewBox="0 0 977.57 219.2"><defs><style>.cls-1{fill:#fff;}.cls-2{fill:#dc3c05;}</style></defs><title>logo-white2</title><rect class="cls-1" x="580.35" y="56.18" width="26.51" height="120.7" rx="3.89"/><rect class="cls-1" x="579.68" y="18.79" width="27.61" height="24.43" rx="3.77"/><path class="cls-1" d="M1188.62,946.26h-58.36a4.33,4.33,0,0,0-4.33,4.33V1062.7a4.33,4.33,0,0,0,4.33,4.33h17.86a4.33,4.33,0,0,0,4.33-4.33V999.09c0-18,10.74-28.72,26.09-28.72,15.78,0,24.76,10.31,24.76,28.28v64.05a4.33,4.33,0,0,0,4.34,4.33h17.85a4.33,4.33,0,0,0,4.33-4.33V990.76C1229.82,963.8,1214.7,946.26,1188.62,946.26Z" transform="translate(-511.22 -890.15)"/><path class="cls-1" d="M1429.65,946.37h-57.42a6.85,6.85,0,0,0-6.85,6.84v54.1l.16,3.16c1.63,31.41,27.07,56.67,61.22,56.67,35.72,0,62-27.4,62-60.27v-.44C1488.78,974.08,1463.93,947.54,1429.65,946.37Zm32.61,60.94c0,20-13.59,36.82-35.06,36.82-20.62,0-35.3-17.1-35.3-37.26v-.44c0-20.16,13.6-36.82,34.86-36.82,20.83,0,35.5,16.87,35.5,37.26Z" transform="translate(-511.22 -890.15)"/><path class="cls-1" d="M874.79,908.25H857.84a4.81,4.81,0,0,0-4.79,4.81v40.33a1.34,1.34,0,0,1-2,1.15,58.57,58.57,0,0,0-30.23-8.28h-.42c-32.2,0-59,25.76-59,60.73,0,33.44,24.57,58.51,55.33,60.1h58.13a4.78,4.78,0,0,0,4.78-4.8V913.06A4.81,4.81,0,0,0,874.79,908.25Zm-54,132.87h-.42c-19.75,0-36.49-14.38-36.49-34.55,0-21,16.52-34.34,36-34.34h.45c20,0,36.48,14.38,36.48,34.76C856.83,1027.81,840.52,1041.12,820.77,1041.12Z" transform="translate(-511.22 -890.15)"/><path class="cls-1" d="M760.59,946.25H702.66a4.79,4.79,0,0,0-4.79,4.8v111.19a4.78,4.78,0,0,0,4.79,4.79H719.6a4.78,4.78,0,0,0,4.79-4.79V999.08c0-17.71,10.42-28.39,25.41-28.66h10.79a4.8,4.8,0,0,0,4.79-4.79V951.05A4.8,4.8,0,0,0,760.59,946.25Z" transform="translate(-511.22 -890.15)"/><path class="cls-1" d="M1078.93,946.25H1021a4.8,4.8,0,0,0-4.8,4.8v111.19a4.79,4.79,0,0,0,4.8,4.79h16.93a4.78,4.78,0,0,0,4.79-4.79V999.08c0-17.71,10.42-28.39,25.42-28.66h10.78a4.79,4.79,0,0,0,4.79-4.79V951.05A4.79,4.79,0,0,0,1078.93,946.25Z" transform="translate(-511.22 -890.15)"/><path class="cls-1" d="M1350.6,946.24l-57.65-.09c-30.77,1.58-55.36,26.68-55.36,60.12,0,35,26.84,60.75,59.05,60.75h.43a58.25,58.25,0,0,0,29.74-8.07,2,2,0,0,1,3,2.13c-3.28,17.3-15.87,26.4-36.4,26.4a75.9,75.9,0,0,1-39-10.73,3.17,3.17,0,0,0-4.46,1.3l-7.2,14.55a3.2,3.2,0,0,0,1.28,4.2c14.62,8.19,31.76,12.55,50.09,12.55,21.22,0,37.75-5.12,48.47-15.84a46.5,46.5,0,0,0,10.57-17h.1c.11-.33.2-.69.3-1s.27-.87.41-1.3c.48-1.49,1-3,1.33-4.61l.11-.53a84.8,84.8,0,0,0,2.11-19.41V953.1A6.86,6.86,0,0,0,1350.6,946.24Zm-54,94.81h-.43c-19.55,0-36.07-13.31-36.07-34.36,0-20.17,16.75-34.56,36.5-34.56h.43c19.74,0,36.07,13.31,36.07,34.14C1333.14,1026.67,1316.6,1041.05,1296.64,1041.05Z" transform="translate(-511.22 -890.15)"/><path class="cls-1" d="M1005.73,1005.26H988a2.65,2.65,0,0,0-2.6,2.59c-.18,4.3-.47,8.63-2.33,12.51q-11.57,24.18-35,24.2a37.15,37.15,0,0,1-20.88-6.26,2.66,2.66,0,0,1,0-4.47l73.18-47.56a5,5,0,0,0,1.77-6.36,62,62,0,0,0-20.81-23.38,59,59,0,0,0-33.56-10.18A57.81,57.81,0,0,0,905,964.17a61.37,61.37,0,0,0-17.6,43.48q.21,24.81,17.71,42,17.7,17.38,43,17.37,25.57,0,42.85-18a61,61,0,0,0,17.44-41A2.64,2.64,0,0,0,1005.73,1005.26Zm-95,7.73a31.4,31.4,0,0,1-.62-6A36.74,36.74,0,0,1,920,981.34a37.58,37.58,0,0,1,48.55-6.06,2.67,2.67,0,0,1,.07,4.5l-53.83,34.94A2.68,2.68,0,0,1,910.73,1013Z" transform="translate(-511.22 -890.15)"/><path class="cls-1" d="M670.78,922.41a87.64,87.64,0,0,0-14-13.8c-14.9-11.56-34-18.46-55.91-18.46-52.53,0-89.62,40.31-89.62,88.48v.44a88.6,88.6,0,0,0,19.29,55.78,86.83,86.83,0,0,0,14,13.81c14.86,11.47,33.94,18.37,55.78,18.37h84.4a5.35,5.35,0,0,0,5.32-5.36V978.15A88.4,88.4,0,0,0,670.78,922.41Zm-70.2,113.94a57.23,57.23,0,0,1-33.19-10.55,58.35,58.35,0,0,1-14-13.89,57.78,57.78,0,1,1,47.17,24.44Z" transform="translate(-511.22 -890.15)"/><path class="cls-2" d="M537.18,1030.18l-.95,1A83.1,83.1,0,0,1,653.16,914.2l-.95.95L642,925.39l-1.11,1.11a65.8,65.8,0,0,0-92.31,92.31l-1.11,1.11Z" transform="translate(-511.22 -890.15)"/><path class="cls-2" d="M659.39,1037.36A83,83,0,0,1,548.08,1043l.95-1,10.26-10.26,1.09-1.11a65.79,65.79,0,0,0,92.3-92.29l1.12-1.11L664.06,927l1-1a83.08,83.08,0,0,1-5.62,111.33Z" transform="translate(-511.22 -890.15)"/></svg>